<svg version="1.1" xmlns="http://www.w3.org/2000/svg" xmlns:xlink="http://www.w3.org/1999/xlink" width="1560" height="804"><defs/><g><path fill="none" stroke="black" paint-order="fill stroke markers" d=" M 20 429.9195316764965 L 21 431.3121421369439 L 22 432.7042602549245 L 23 434.09586264767535 L 24 435.486925941096 L 25 436.87742677014097 L 26 438.2673417792123 L 27 439.6566476225517 L 28 441.0453209646328 L 29 442.43333848055306 L 30 443.82067685642556 L 31 445.20731278977047 L 32 446.59322298990674 L 33 447.97838417834294 L 34 449.3627730891686 L 35 450.7463664694448 L 36 452.1291410795947 L 37 453.51107369379406 L 38 454.89214110036113 L 39 456.27232010214675 L 40 457.65158751692394 L 41 459.0299201777771 L 42 460.40729493349136 L 43 461.78368864894117 L 44 463.1590782054793 L 45 464.5334405013247 L 46 465.90675245195087 L 47 467.27899099047346 L 48 468.6501330680376 L 49 470.0201556542054 L 50 471.3890357373423 L 51 472.75675032500396 L 52 474.1232764443223 L 53 475.4885911423915 L 54 476.85267148665326 L 55 478.2154945652822 L 56 479.5770374875707 L 57 480.93727738431323 L 58 482.29619140819074 L 59 483.65375673415406 L 60 485.0099505598077 L 61 486.3647501057923 L 62 487.71813261616796 L 63 489.0700753587957 L 64 490.42055562571994 L 65 491.76955073354947 L 66 493.11703802383863 L 67 494.462994863468 L 68 495.80739864502414 L 69 497.1502267871799 L 70 498.49145673507337 L 71 499.8310659606866 L 72 501.16903196322426 L 73 502.50533226949153 L 74 503.83994443427144 L 75 505.172846040702 L 76 506.50401470065265 L 77 507.8334280551003 L 78 509.161063774505 L 79 510.48689955918485 L 80 511.8109131396905 L 81 513.1330822771797 L 82 514.4533847637899 L 83 515.7717984230123 L 84 517.0883011100639 L 85 518.4028707122587 L 86 519.7154851493807 L 87 521.0261223740533 L 88 522.3347603721106 L 89 523.6413771629666 L 90 524.9459507999845 L 91 526.2484593708457 L 92 527.5488809979172 L 93 528.8471938386197 L 94 530.1433760857942 L 95 531.437405968068 L 96 532.729261750221 L 97 534.0189217335503 L 98 535.3063642562349 L 99 536.5915676936994 L 100 537.8745104589773 L 101 539.1551710030733 L 102 540.4335278153261 L 103 541.7095594237686 L 104 542.9832443954892 L 105 544.254561336992 L 106 545.5234888945552 L 107 546.7900057545908 L 108 548.0540906440019 L 109 549.3157223305409 L 110 550.5748796231646 L 111 551.8315413723917 L 112 553.0856864706573 L 113 554.3372938526671 L 114 555.5863424957522 L 115 556.8328114202214 L 116 558.0766796897137 L 117 559.3179264115505 L 118 560.5565307370856 L 119 561.7924718620563 L 120 563.0257290269324 L 121 564.2562815172646 L 122 565.4841086640332 L 123 566.7091898439946 L 124 567.931504480028 L 125 569.1510320414809 L 126 570.3677520445141 L 127 571.5816440524454 L 128 572.7926876760937 L 129 574.00086257412 L 130 575.2061484533709 L 131 576.4085250692178 L 132 577.6079722258982 L 133 578.8044697768537 L 134 579.9979976250698 L 135 581.1885357234122 L 136 582.3760640749642 L 137 583.5605627333625 L 138 584.7420118031321 L 139 585.9203914400204 L 140 587.0956818513307 L 141 588.267863296255 L 142 589.4369160862045 L 143 590.6028205851413 L 144 591.765557209908 L 145 592.9251064305563 L 146 594.0814487706754 L 147 595.2345648077187 L 148 596.3844351733308 L 149 597.5310405536718 L 150 598.6743616897429 L 151 599.8143793777085 L 152 600.95107446922 L 153 602.0844278717366 L 154 603.2144205488465 L 155 604.3410335205865 L 156 605.4642478637606 L 157 606.584044712258 L 158 607.70040525737 L 159 608.8133107481058 L 160 609.9227424915077 L 161 611.0286818529651 L 162 612.1311102565268 L 163 613.2300091852139 L 164 614.3253601813303 L 165 615.4171448467732 L 166 616.5053448433414 L 167 617.5899418930437 L 168 618.6709177784064 L 169 619.7482543427785 L 170 620.8219334906369 L 171 621.8919371878904 L 172 622.9582474621832 L 173 624.0208464031955 L 174 625.0797161629453 L 175 626.1348389560881 L 176 627.1861970602154 L 177 628.2337728161522 L 178 629.2775486282542 L 179 630.3175069647027 L 180 631.3536303577995 L 181 632.3859014042602 L 182 633.4143027655064 L 183 634.4388171679569 L 184 635.4594274033184 L 185 636.4761163288736 L 186 637.4888668677697 L 187 638.4976620093055 L 188 639.5024848092163 L 189 640.5033183899594 L 190 641.5001459409968 L 191 642.4929507190782 L 192 643.4817160485218 L 193 644.4664253214946 L 194 645.4470619982915 L 195 646.4236096076124 L 196 647.3960517468399 L 197 648.364372082314 L 198 649.3285543496067 L 199 650.2885823537954 L 200 651.2444399697347 L 201 652.196111142327 L 202 653.143579886793 L 203 654.0868302889389 L 204 655.0258465054251 L 205 655.9606127640313 L 206 656.891113363922 L 207 657.8173326759097 L 208 658.7392551427179 L 209 659.6568652792422 L 210 660.5701476728104 L 211 661.4790869834414 L 212 662.383667944103 L 213 663.2838753609677 L 214 664.179694113669 L 215 665.0711091555543 L 216 665.9581055139383 L 217 666.8406682903544 L 218 667.7187826608044 L 219 668.5924338760084 L 220 669.4616072616517 L 221 670.3262882186318 L 222 671.1864622233034 L 223 672.0421148277223 L 224 672.8932316598886 L 225 673.7397984239868 L 226 674.5818009006277 L 227 675.4192249470857 L 228 676.2520564975373 L 229 677.0802815632969 L 230 677.9038862330519 L 231 678.7228566730964 L 232 679.5371791275634 L 233 680.346839918656 L 234 681.1518254468772 L 235 681.952122191258 L 236 682.7477167095851 L 237 683.538595638626 L 238 684.324745694354 L 239 685.1061536721706 L 240 685.8828064471285 L 241 686.6546909741508 L 242 687.4217942882507 L 243 688.1841035047496 L 244 688.9416058194927 L 245 689.6942885090648 L 246 690.4421389310035 L 247 691.185144524012 L 248 691.9232928081694 L 249 692.6565713851414 L 250 693.3849679383874 L 251 694.108470233368 L 252 694.8270661177507 L 253 695.5407435216132 L 254 696.2494904576471 L 255 696.9532950213585 L 256 697.6521453912682 L 257 698.3460298291105 L 258 699.0349366800302 L 259 699.7188543727781 L 260 700.3977714199057 L 261 701.0716764179579 L 262 701.7405580476648 L 263 702.4044050741318 L 264 703.0632063470277 L 265 703.7169508007734 L 266 704.3656274547259 L 267 705.009225413364 L 268 705.6477338664713 L 269 706.2811420893171 L 270 706.9094394428371 L 271 707.5326153738117 L 272 708.1506594150437 L 273 708.763561185534 L 274 709.3713103906551 L 275 709.9738968223256 L 276 710.5713103591804 L 277 711.1635409667413 L 278 711.7505786975851 L 279 712.332413691511 L 280 712.9090361757064 L 281 713.4804364649108 L 282 714.0466049615782 L 283 714.6075321560388 L 284 715.1632086266584 L 285 715.7136250399967 L 286 716.2587721509648 L 287 716.7986408029788 L 288 717.3332219281154 L 289 717.8625065472631 L 290 718.3864857702736 L 291 718.9051507961105 L 292 719.4184929129981 L 293 719.9265034985663 L 294 720.429174019997 L 295 720.9264960341663 L 296 721.4184611877871 L 297 721.9050612175483 L 298 722.386287950255 L 299 722.8621333029646 L 300 723.3325892831235 L 301 723.7976479887003 L 302 724.2573016083197 L 303 724.7115424213928 L 304 725.1603627982472 L 305 725.6037552002549 L 306 726.0417121799594 L 307 726.4742263812002 L 308 726.9012905392367 L 309 727.3228974808701 L 310 727.7390401245641 L 311 728.1497114805636 L 312 728.5549046510121 L 313 728.9546128300676 L 314 729.3488293040173 L 315 729.7375474513894 L 316 730.1207607430658 L 317 730.4984627423902 L 318 730.870647105277 L 319 731.2373075803182 L 320 731.5984380088877 L 321 731.954032325245 L 322 732.304084556637 L 323 732.6485888233989 L 324 732.987539339052 L 325 733.3209304104016 L 326 733.6487564376325 L 327 733.9710119144027 L 328 734.2876914279364 L 329 734.5987896591145 L 330 734.9043013825642 L 331 735.2042214667467 L 332 735.4985448740433 L 333 735.7872666608403 L 334 736.0703819776115 L 335 736.3478860690002 L 336 736.6197742738987 L 337 736.8860420255266 L 338 737.1466848515086 L 339 737.4016983739472 L 340 737.6510783094989 L 341 737.8948204694441 L 342 738.1329207597591 L 343 738.3653751811835 L 344 738.5921798292882 L 345 738.8133308945404 L 346 739.0288246623684 L 347 739.2386575132232 L 348 739.4428259226395 L 349 739.6413264612953 L 350 739.834155795069 L 351 740.0213106850956 L 352 740.2027879878214 L 353 740.3785846550559 L 354 740.548697734024 L 355 740.7131243674154 L 356 740.8718617934319 L 357 741.0249073458347 L 358 741.1722584539884 L 359 741.313912642905 L 360 741.4498675332845 L 361 741.5801208415555 L 362 741.704670379914 L 363 741.8235140563587 L 364 741.9366498747277 L 365 742.0440759347308 L 366 742.1457904319825 L 367 742.2417916580316 L 368 742.3320780003897 L 369 742.4166479425593 L 370 742.495500064058 L 371 742.5686330404433 L 372 742.6360456433347 L 373 742.6977367404336 L 374 742.7537052955436 L 375 742.8039503685864 L 376 742.8484711156193 L 377 742.8872667888475 L 378 742.9203367366383 L 379 742.9476804035311 L 380 742.969297330247 L 381 742.9851871536963 L 382 742.9953496069852 L 383 742.9997845194197 L 384 742.9984918165085 L 385 742.9914715199645 L 386 742.9787237477046 L 387 742.9602487138472 L 388 742.9360467287086 L 389 742.9061181987986 L 390 742.8704636268126 L 391 742.8290836116241 L 392 742.7819788482741 L 393 742.7291501279593 L 394 742.6705983380193 L 395 742.6063244619215 L 396 742.5363295792442 L 397 742.4606148656592 L 398 742.3791815929112 L 399 742.2920311287975 L 400 742.1991649371437 L 401 742.1005845777804 L 402 741.9962917065163 L 403 741.8862880751101 L 404 741.770575531242 L 405 741.649156018482 L 406 741.5220315762574 L 407 741.3892043398184 L 408 741.2506765402027 L 409 741.1064505041975 L 410 740.9565286543007 L 411 740.80091350868 L 412 740.6396076811309 L 413 740.4726138810329 L 414 740.2999349133031 L 415 740.1215736783503 L 416 739.9375331720255 L 417 739.7478164855718 L 418 739.5524268055723 L 419 739.351367413897 L 420 739.1446416876474 L 421 738.9322530990999 L 422 738.7142052156466 L 423 738.4905016997373 L 424 738.261146308816 L 425 738.026142895259 L 426 737.7854954063098 L 427 737.5392078840125 L 428 737.2872844651447 L 429 737.0297293811473 L 430 736.7665469580535 L 431 736.4977416164166 L 432 736.2233178712355 L 433 735.9432803318784 L 434 735.6576337020063 L 435 735.3663827794932 L 436 735.0695324563458 L 437 734.7670877186213 L 438 734.459053646344 L 439 734.1454354134194 L 440 733.8262382875475 L 441 733.5014676301346 L 442 733.171128896203 L 443 732.8352276342991 L 444 732.4937694864009 L 445 732.1467601878226 L 446 731.7942055671185 L 447 731.4361115459853 L 448 731.0724841391623 L 449 730.7033294543305 L 450 730.32865369201 L 451 729.9484631454561 L 452 729.5627642005529 L 453 729.1715633357072 L 454 728.7748671217385 L 455 728.3726822217691 L 456 727.9650153911124 L 457 727.5518734771595 L 458 727.1332634192634 L 459 726.7091922486233 L 460 726.279667088166 L 461 725.8446951524269 L 462 725.4042837474277 L 463 724.9584402705548 L 464 724.5071722104344 L 465 724.050487146807 L 466 723.5883927504 L 467 723.1208967827988 L 468 722.6480070963164 L 469 722.1697316338618 L 470 721.6860784288062 L 471 721.1970556048486 L 472 720.7026713758785 L 473 720.2029340458387 L 474 719.6978520085856 L 475 719.1874337477482 L 476 718.6716878365851 L 477 718.1506229378417 L 478 717.6242478036036 L 479 717.0925712751497 L 480 716.5556022828046 L 481 716.0133498457874 L 482 715.4658230720609 L 483 714.9130311581788 L 484 714.3549833891307 L 485 713.791689138186 L 486 713.2231578667374 L 487 712.6493991241414 L 488 712.0704225475574 L 489 711.4862378617868 L 490 710.8968548791089 L 491 710.3022834991166 L 492 709.7025337085497 L 493 709.0976155811275 L 494 708.4875392773796 L 495 707.8723150444748 L 496 707.2519532160495 L 497 706.6264642120339 L 498 705.9958585384766 L 499 705.3601467873691 L 500 704.7193396364671 L 501 704.0734478491112 L 502 703.4224822740464 L 503 702.7664538452399 L 504 702.1053735816971 L 505 701.439252587277 L 506 700.7681020505049 L 507 700.0919332443855 L 508 699.4107575262129 L 509 698.72458633738 L 510 698.033431203186 L 511 697.3373037326437 L 512 696.6362156182834 L 513 695.9301786359572 L 514 695.2192046446412 L 515 694.5033055862361 L 516 693.7824934853666 L 517 693.0567804491793 L 518 692.3261786671399 L 519 691.5907004108276 L 520 690.8503580337303 L 521 690.1051639710358 L 522 689.3551307394231 L 523 688.6002709368529 L 524 687.8405972423554 L 525 687.0761224158178 L 526 686.3068592977693 L 527 685.532820809166 L 528 684.7540199511736 L 529 683.9704698049493 L 530 683.1821835314217 L 531 682.3891743710702 L 532 681.5914556437019 L 533 680.7890407482287 L 534 679.9819431624416 L 535 679.1701764427849 L 536 678.3537542241277 L 537 677.5326902195357 L 538 676.7069982200408 L 539 675.8766920944086 L 540 675.0417857889063 L 541 674.202293327068 L 542 673.3582288094599 L 543 672.5096064134423 L 544 671.6564403929324 L 545 670.7987450781641 L 546 669.9365348754486 L 547 669.0698242669309 L 548 668.1986278103474 L 549 667.3229601387811 L 550 666.4428359604162 L 551 665.5582700582908 L 552 664.6692772900481 L 553 663.7758725876877 L 554 662.8780709573143 L 555 661.9758874788861 L 556 661.0693373059605 L 557 660.158435665441 L 558 659.2431978573197 L 559 658.3236392544227 L 560 657.399775302149 L 561 656.4716215182136 L 562 655.5391934923855 L 563 654.6025068862257 L 564 653.6615774328255 L 565 652.7164209365408 L 566 651.7670532727269 L 567 650.8134903874728 L 568 649.8557482973322 L 569 648.8938430890553 L 570 647.9277909193179 L 571 646.9576080144504 L 572 645.9833106701659 L 573 645.0049152512851 L 574 644.0224381914625 L 575 643.0358959929098 L 576 642.0453052261192 L 577 641.0506825295847 L 578 640.0520446095229 L 579 639.049408239592 L 580 638.0427902606104 L 581 637.032207580274 L 582 636.0176771728713 L 583 634.9992160789999 L 584 633.9768414052785 L 585 632.9505703240607 L 586 631.9204200731463 L 587 630.8864079554914 L 588 629.8485513389187 L 589 628.8068676558245 L 590 627.7613744028871 L 591 626.7120891407719 L 592 625.6590294938375 L 593 624.6022131498385 L 594 623.5416578596291 L 595 622.4773814368654 L 596 621.4094017577049 L 597 620.3377367605075 L 598 619.2624044455334 L 599 618.1834228746413 L 600 617.1008101709845 L 601 616.0145845187067 L 602 614.9247641626371 L 603 613.8313674079828 L 604 612.7344126200226 L 605 611.6339182237975 L 606 610.529902703802 L 607 609.4223846036732 L 608 608.3113825258793 L 609 607.1969151314071 L 610 606.0790011394491 L 611 604.9576593270887 L 612 603.8329085289844 L 613 602.7047676370541 L 614 601.5732556001576 L 615 600.4383914237782 L 616 599.3001941697034 L 617 598.1586829557053 L 618 597.0138769552184 L 619 595.8657953970187 L 620 594.7144575649 L 621 593.5598827973504 L 622 592.4020904872269 L 623 591.2411000814307 L 624 590.0769310805792 L 625 588.90960303868 L 626 587.739135562801 L 627 586.5655483127421 L 628 585.3888610007042 L 629 584.209093390959 L 630 583.026265299516 L 631 581.8403965937907 L 632 580.6515071922701 L 633 579.4596170641785 L 634 578.264746229142 L 635 577.0669147568523 L 636 575.8661427667294 L 637 574.6624504275841 L 638 573.4558579572786 L 639 572.2463856223874 L 640 571.034053737857 L 641 569.818882666664 L 642 568.6008928194739 L 643 567.3801046542975 L 644 566.1565386761481 L 645 564.9302154366961 L 646 563.7011555339249 L 647 562.4693796117838 L 648 561.2349083598423 L 649 559.9977625129418 L 650 558.7579628508477 L 651 557.5155301979004 L 652 556.2704854226655 L 653 555.022849437583 L 654 553.7726431986163 L 655 552.5198877049002 L 656 551.264603998388 L 657 550.0068131634986 L 658 548.7465363267615 L 659 547.483794656463 L 660 546.2186093622895 L 661 544.951001694972 L 662 543.680992945929 L 663 542.4086044469091 L 664 541.133857569632 L 665 539.8567737254303 L 666 538.5773743648897 L 667 537.2956809774878 L 668 536.0117150912348 L 669 534.7254982723107 L 670 533.4370521247032 L 671 532.1463982898451 L 672 530.8535584462508 L 673 529.5585543091518 L 674 528.2614076301327 L 675 526.9621401967648 L 676 525.6607738322411 L 677 524.3573303950096 L 678 523.0518317784055 L 679 521.7442999102839 L 680 520.4347567526518 L 681 519.1232243012985 L 682 517.8097245854269 L 683 516.4942796672831 L 684 515.1769116417855 L 685 513.8576426361544 L 686 512.5364948095399 L 687 511.21349035264996 L 688 509.88865148737693 L 689 508.5620004664255 L 690 507.2335595729379 L 691 505.90335112012025 L 692 504.5713974508674 L 693 503.23772093738773 L 694 501.9023439808278 L 695 500.56528901089536 L 696 499.22657848548306 L 697 497.88623489029123 L 698 496.54428073844997 L 699 495.20073857014137 L 700 493.85563095222045 L 701 492.5089804778366 L 702 491.1608097660535 L 703 489.8111414614701 L 704 488.45999823383926 L 705 487.10740277768764 L 706 485.75337781193423 L 707 484.39794607950887 L 708 483.0411303469702 L 709 481.6829534041233 L 710 480.32343806363673 L 711 478.96260716065956 L 712 477.6004835524381 L 713 476.23709011793113 L 714 474.8724497574263 L 715 473.50658539215533 L 716 472.139519963909 L 717 470.77127643465167 L 718 469.40187778613586 L 719 468.0313470195158 L 720 466.65970715496195 L 721 465.28698123127333 L 722 463.91319230549107 L 723 462.538363452511 L 724 461.16251776469636 L 725 459.7856783514894 L 726 458.4078683390237 L 727 457.0291108697355 L 728 455.64942910197493 L 729 454.26884620961744 L 730 452.887385381674 L 731 451.50506982190177 L 732 450.1219227484147 L 733 448.73796739329316 L 734 447.3532270021938 L 735 445.96772483395927 L 736 444.5814841602274 L 737 443.19452826504005 L 738 441.8068804444531 L 739 440.4185640061436 L 740 439.02960226901945 L 741 437.6400185628272 L 742 436.2498362277604 L 743 434.85907861406736 L 744 433.4677690816593 L 745 432.07593099971757 L 746 430.6835877463012 L 747 429.29076270795497 L 748 427.8974792793153 L 749 426.5037608627182 L 750 425.1096308678061 L 751 423.7151127111344 L 752 422.32022981577825 L 753 420.9250056109392 L 754 419.52946353155147 L 755 418.13362701788895 L 756 416.73751951517045 L 757 415.34116447316666 L 758 413.94458534580616 L 759 412.54780559078125 L 760 411.1508486691542 L 761 409.753738044963 L 762 408.3564971848272 L 763 406.959149557554 L 764 405.5617186337441 L 765 404.164227885397 L 766 402.76670078551706 L 767 401.3691608077194 L 768 399.97163142583526 L 769 398.5741361135181 L 770 397.17669834384884 L 771 395.7793415889422 L 772 394.3820893195518 L 773 392.9849650046768 L 774 391.58799211116656 L 775 390.19119410332746 L 776 388.79459444252825 L 777 387.39821658680626 L 778 386.00208399047307 L 779 384.60622010372094 L 780 383.2106483722285 L 781 381.81539223676765 L 782 380.4204751328089 L 783 379.02592049012844 L 784 377.6317517324143 L 785 376.2379922768729 L 786 374.8446655338359 L 787 373.45179490636696 L 788 372.0594037898684 L 789 370.6675155716884 L 790 369.2761536307286 L 791 367.8853413370505 L 792 366.4951020514836 L 793 365.10545912523304 L 794 363.7164358994869 L 795 362.3280557050246 L 796 360.94034186182483 L 797 359.55331767867386 L 798 358.167006452774 L 799 356.78143146935264 L 800 355.39661600127056 L 801 354.01258330863135 L 802 352.62935663839073 L 803 351.24695922396603 L 804 349.86541428484594 L 805 348.4847450262006 L 806 347.10497463849157 L 807 345.7261262970826 L 808 344.3482231618504 L 809 342.9712883767953 L 810 341.5953450696527 L 811 340.2204163515047 L 812 338.84652531639176 L 813 337.47369504092484 L 814 336.1019485838979 L 815 334.7313089859002 L 816 333.3617992689303 L 817 331.99344243600797 L 818 330.6262614707888 L 819 329.26027933717785 L 820 327.89551897894387 L 821 326.53200331933425 L 822 325.16975526068956 L 823 323.8087976840591 L 824 322.44915344881633 L 825 321.09084539227575 L 826 319.73389632930815 L 827 318.37832905195796 L 828 317.0241663290606 L 829 315.6714309058597 L 830 314.32014550362527 L 831 312.97033281927196 L 832 311.6220155249778 L 833 310.2752162678035 L 834 308.9299576693122 L 835 307.58626232518895 L 836 306.2441528048618 L 837 304.90365165112235 L 838 303.5647813797472 L 839 302.22756447911985 L 840 300.8920234098528 L 841 299.5581806044103 L 842 298.2260584667321 L 843 296.89567937185626 L 844 295.56706566554385 L 845 294.24023966390354 L 846 292.91522365301677 L 847 291.5920398885634 L 848 290.27071059544795 L 849 288.95125796742616 L 850 287.6337041667321 L 851 286.31807132370676 L 852 285.0043815364251 L 853 283.6926568703256 L 854 282.3829193578396 L 855 281.0751909980212 L 856 279.7694937561774 L 857 278.4658495634998 L 858 277.1642803166957 L 859 275.8648078776203 L 860 274.5674540729104 L 861 273.27224069361625 L 862 271.9791894948369 L 863 270.688322195354 L 864 269.3996604772673 L 865 268.1132259856305 L 866 266.82904032808744 L 867 265.5471250745097 L 868 264.2675017566334 L 869 262.9901918676986 L 870 261.7152168620876 L 871 260.4425981549645 L 872 259.17235712191604 L 873 257.9045150985921 L 874 256.6390933803476 L 875 255.37611322188465 L 876 254.11559583689555 L 877 252.85756239770691 L 878 251.60203403492324 L 879 250.34903183707257 L 880 249.0985768502521 L 881 247.85069007777477 L 882 246.60539247981632 L 883 245.36270497306342 L 884 244.12264843036218 L 885 242.8852436803675 L 886 241.6505115071938 L 887 240.41847265006498 L 888 239.18914780296677 L 889 237.96255761429893 L 890 236.73872268652835 L 891 235.51766357584316 L 892 234.29940079180733 L 893 233.08395479701625 L 894 231.87134600675287 L 895 230.66159478864535 L 896 229.45472146232407 L 897 228.250746299081 L 898 227.04968952152896 L 899 225.85157130326203 L 900 224.65641176851668 L 901 223.46423099183366 L 902 222.27504899772094 L 903 221.0888857603175 L 904 219.90576120305747 L 905 218.72569519833564 L 906 217.54870756717392 L 907 216.37481807888796 L 908 215.2040464507555 L 909 214.036412347685 L 910 212.87193538188538 L 911 211.7106351125364 L 912 210.55253104546074 L 913 209.3976426327956 L 914 208.24598927266632 L 915 207.0975903088608 L 916 205.9524650305041 L 917 204.81063267173488 L 918 203.6721124113821 L 919 202.53692337264286 L 920 201.40508462276128 L 921 200.27661517270857 L 922 199.15153397686294 L 923 198.02985993269178 L 924 196.91161188043424 L 925 195.79680860278455 L 926 194.6854688245768 L 927 193.57761121247012 L 928 192.4732543746354 L 929 191.3724168604425 L 930 190.27511716014925 L 931 189.18137370459007 L 932 188.09120486486682 L 933 187.00462895204035 L 934 185.92166421682265 L 935 184.84232884927047 L 936 183.76664097847984 L 937 182.69461867228117 L 938 181.6262799369366 L 939 180.5616427168367 L 940 179.50072489419935 L 941 178.44354428876963 L 942 177.39011865752013 L 943 176.34046569435304 L 944 175.29460302980272 L 945 174.25254823073962 L 946 173.21431880007518 L 947 172.17993217646816 L 948 171.14940573403123 L 949 170.12275678203946 L 950 169.1000025646394 L 951 168.08116026055976 L 952 167.06624698282252 L 953 166.05527977845566 L 954 165.0482756282067 L 955 164.04525144625762 L 956 163.04622407994103 L 957 162.05121030945634 L 958 161.06022684758884 L 959 160.07329033942847 L 960 159.0904173620903 L 961 158.11162442443631 L 962 157.13692796679774 L 963 156.16634436069927 L 964 155.1998899085841 L 965 154.23758084353963 L 966 153.27943332902527 L 967 152.32546345860075 L 968 151.37568725565592 L 969 150.43012067314143 L 970 149.48877959330096 L 971 148.55167982740443 L 972 147.6188371154821 L 973 146.69026712606097 L 974 145.76598545590076 L 975 144.84600762973213 L 976 143.93034909999648 L 977 143.01902524658556 L 978 142.11205137658413 L 979 141.20944272401147 L 980 140.31121444956733 L 981 139.4173816403753 L 982 138.52795930973122 L 983 137.64296239684938 L 984 136.76240576661314 L 985 135.88630420932384 L 986 135.01467244045347 L 987 134.147525100397 L 988 133.28487675422616 L 989 132.42674189144572 L 990 131.57313492574895 L 991 130.7240701947768 L 992 129.87956195987573 L 993 129.03962440585946 L 994 128.20427164076955 L 995 127.37351769563935 L 996 126.54737652425814 L 997 125.72586200293586 L 998 124.90898793027162 L 999 124.09676802692024 L 1000 123.28921593536336 L 1001 122.48634521967892 L 1002 121.68816936531454 L 1003 120.89470177885977 L 1004 120.10595578782221 L 1005 119.32194464040276 L 1006 118.5426815052731 L 1007 117.76817947135521 L 1008 116.9984515476005 L 1009 116.23351066277252 L 1010 115.47336966522846 L 1011 114.71804132270461 L 1012 113.96753832210118 L 1013 113.22187326926894 L 1014 112.4810586887985 L 1015 111.74510702380877 L 1016 111.01403063573912 L 1017 110.28784180414038 L 1018 109.56655272647032 L 1019 108.85017551788684 L 1020 108.13872221104617 L 1021 107.43220475589987 L 1022 106.73063501949389 L 1023 106.03402478577027 L 1024 105.34238575536796 L 1025 104.6557295454275 L 1026 103.97406768939481 L 1027 103.29741163682837 L 1028 102.62577275320609 L 1029 101.95916231973501 L 1030 101.297591533162 L 1031 100.64107150558459 L 1032 99.98961326426564 L 1033 99.34322775144716 L 1034 98.70192582416718 L 1035 98.06571825407684 L 1036 97.43461572725994 L 1037 96.80862884405303 L 1038 96.18776811886772 L 1039 95.57204398001403 L 1040 94.96146676952475 L 1041 94.35604674298253 L 1042 93.75579406934668 L 1043 93.16071883078354 L 1044 92.57083102249572 L 1045 91.9861405525557 L 1046 91.40665724173812 L 1047 90.83239082335558 L 1048 90.26335094309513 L 1049 89.69954715885575 L 1050 89.14098894058856 L 1051 88.58768567013675 L 1052 88.03964664107923 L 1053 87.49688105857331 L 1054 86.95939803920123 L 1055 86.42720661081592 L 1056 85.90031571239024 L 1057 85.37873419386659 L 1058 84.86247081600771 L 1059 84.35153425025061 L 1060 83.84593307855971 L 1061 83.34567579328382 L 1062 82.85077079701256 L 1063 82.36122640243588 L 1064 81.8770508322039 L 1065 81.39825221878948 L 1066 80.92483860435112 L 1067 80.45681794059766 L 1068 79.99419808865548 L 1069 79.53698681893565 L 1070 79.08519181100422 L 1071 78.63882065345223 L 1072 78.19788084376938 L 1073 77.76237978821734 L 1074 77.33232480170528 L 1075 76.90772310766778 L 1076 76.48858183794243 L 1077 76.0749080326512 L 1078 75.66670864008097 L 1079 75.26399051656796 L 1080 74.86676042638175 L 1081 74.47502504161207 L 1082 74.08879094205685 L 1083 73.70806461511091 L 1084 73.33285245565821 L 1085 72.96316076596332 L 1086 72.5989957555663 L 1087 72.24036354117806 L 1088 71.88727014657769 L 1089 71.53972150251121 L 1090 71.19772344659225 L 1091 70.8612817232036 L 1092 70.53040198340102 L 1093 70.20508978481814 L 1094 69.88535059157306 L 1095 69.57118977417707 L 1096 69.26261260944358 L 1097 68.95962428040036 L 1098 68.66222987620193 L 1099 68.37043439204422 L 1100 68.08424272908081 L 1101 67.80365969434041 L 1102 67.52869000064624 L 1103 67.2593382665367 L 1104 66.99560901618827 L 1105 66.73750667933865 L 1106 66.48503559121343 L 1107 66.23819999245228 L 1108 65.99700402903852 L 1109 65.76145175222882 L 1110 65.53154711848572 L 1111 65.30729398941077 L 1112 65.0886961316798 L 1113 64.87575721697982 L 1114 64.66848082194696 L 1115 64.46687042810686 L 1116 64.27092942181582 L 1117 64.08066109420423 L 1118 63.896068641120905 L 1119 63.71715516307967 L 1120 63.543923665207444 L 1121 63.37637705719328 L 1122 63.21451815324008 L 1123 63.05834967201662 L 1124 62.90787423661271 L 1125 62.7630943744943 L 1126 62.624012517461836 L 1127 62.490631001608676 L 1128 62.36295206728238 L 1129 62.24097785904689 L 1130 62.1247104256463 L 1131 62.014151719970926 L 1132 61.9093035990241 L 1133 61.81016782389105 L 1134 61.71674605970952 L 1135 61.62903987564158 L 1136 61.5470507448473 L 1137 61.470780044460184 L 1138 61.400229055563784 L 1139 61.335398963170405 L 1140 61.276290856201 L 1141 61.22290572746715 L 1142 61.175244473654004 L 1143 61.13330789530568 L 1144 61.09709669681132 L 1145 61.066611486393754 L 1146 61.041852776098835 L 1147 61.02282098178722 L 1148 61.00951642312714 L 1149 61.001939323589056 L 1150 61.00008981044198 L 1151 61.0039679147514 L 1152 61.01357357137857 L 1153 61.028906618981694 L 1154 61.049966800018694 L 1155 61.076753760751444 L 1156 61.109267051251834 L 1157 61.14750612540922 L 1158 61.191470340939475 L 1159 61.2411589593961 L 1160 61.29657114618249 L 1161 61.35770597056569 L 1162 61.42456240569243 L 1163 61.49713932860618 L 1164 61.57543552026601 L 1165 61.659449665567024 L 1166 61.74918035336259 L 1167 61.84462607648794 L 1168 61.945785231785464 L 1169 62.052656120131815 L 1170 62.16523694646605 L 1171 62.283525819820284 L 1172 62.40752075335109 L 1173 62.5372196643732 L 1174 62.67262037439389 L 1175 62.81372060915032 L 1176 62.96051799864716 L 1177 63.11301007719675 L 1178 63.27119428346032 L 1179 63.43506796049104 L 1180 63.60462835577869 L 1181 63.779872621295965 L 1182 63.960797813546094 L 1183 64.14740089361243 L 1184 64.33967872720962 L 1185 64.5376280847359 L 1186 64.7412456413278 L 1187 64.9505279769154 L 1188 65.16547157628042 L 1189 65.38607282911482 L 1190 65.61232803008153 L 1191 65.84423337887688 L 1192 66.08178498029417 L 1193 66.32497884428926 L 1194 66.57381088604751 L 1195 66.82827692605235 L 1196 67.08837269015584 L 1197 67.35409380964973 L 1198 67.62543582133969 L 1199 67.9023941676196 L 1200 68.1849641965486 L 1201 68.47314116192877 L 1202 68.76692022338523 L 1203 69.06629644644721 L 1204 69.37126480263095 L 1205 69.68182016952449 L 1206 69.99795733087302 L 1207 70.31967097666745 L 1208 70.64695570323249 L 1209 70.97980601331847 L 1210 71.31821631619283 L 1211 71.66218092773471 L 1212 72.01169407052987 L 1213 72.36674987396793 L 1214 72.72734237434122 L 1215 73.09346551494457 L 1216 73.46511314617737 L 1217 73.84227902564646 L 1218 74.22495681827144 L 1219 74.61314009639068 L 1220 75.00682233986981 L 1221 75.40599693621039 L 1222 75.81065718066168 L 1223 76.22079627633337 L 1224 76.63640733430884 L 1225 77.05748337376207 L 1226 77.48401732207361 L 1227 77.91600201495078 L 1228 78.35343019654658 L 1229 78.79629451958283 L 1230 79.2445875454726 L 1231 79.69830174444559 L 1232 80.15742949567493 L 1233 80.62196308740431 L 1234 81.0918947170785 L 1235 81.56721649147352 L 1236 82.04792042682993 L 1237 82.53399844898638 L 1238 83.02544239351579 L 1239 83.52224400586192 L 1240 84.02439494147814 L 1241 84.53188676596818 L 1242 85.04471095522678 L 1243 85.56285889558399 L 1244 86.0863218839487 L 1245 86.61509112795602 L 1246 87.1491577461137 L 1247 87.68851276795249 L 1248 88.23314713417597 L 1249 88.783051696813 L 1250 89.3382172193717 L 1251 89.89863437699381 L 1252 90.46429375661228 L 1253 91.03518585710856 L 1254 91.6113010894727 L 1255 92.19262977696405 L 1256 92.77916215527404 L 1257 93.37088837269033 L 1258 93.9677984902616 L 1259 94.56988248196546 L 1260 95.17713023487596 L 1261 95.78953154933424 L 1262 96.407076139119 L 1263 97.02975363162022 L 1264 97.65755356801247 L 1265 98.29046540343109 L 1266 98.92847850714952 L 1267 99.57158216275701 L 1268 100.21976556833994 L 1269 100.87301783666163 L 1270 101.53132799534689 L 1271 102.19468498706465 L 1272 102.86307766971527 L 1273 103.53649481661654 L 1274 104.21492511669254 L 1275 104.89835717466423 L 1276 105.58677951123985 L 1277 106.28018056330859 L 1278 106.97854868413424 L 1279 107.68187214355129 L 1280 108.39013912816125 L 1281 109.10333774153213 L 1282 109.82145600439725 L 1283 110.54448185485677 L 1284 111.27240314858085 L 1285 112.00520765901268 L 1286 112.74288307757462 L 1287 113.48541701387444 L 1288 114.23279699591387 L 1289 114.98501047029748 L 1290 115.74204480244452 L 1291 116.5038872767999 L 1292 117.27052509704856 L 1293 118.04194538633067 L 1294 118.81813518745673 L 1295 119.59908146312677 L 1296 120.38477109614774 L 1297 121.17519088965543 L 1298 121.97032756733444 L 1299 122.77016777364292 L 1300 123.57469807403533 L 1301 124.383904955189 L 1302 125.19777482523125 L 1303 126.01629401396679 L 1304 126.83944877310847 L 1305 127.66722527650683 L 1306 128.4996096203841 L 1307 129.3365878235657 L 1308 130.17814582771712 L 1309 131.02426949757836 L 1310 131.87494462120202 L 1311 132.73015691019282 L 1312 133.5898919999458 L 1313 134.45413544988946 L 1314 135.32287274372675 L 1315 136.19608928968034 L 1316 137.07377042073648 L 1317 137.9559013948916 L 1318 138.84246739540112 L 1319 139.73345353102633 L 1320 140.62884483628642 L 1321 141.52862627170822 L 1322 142.4327827240803 L 1323 143.34129900670547 L 1324 144.25415985965714 L 1325 145.17134995003437 L 1326 146.09285387222013 L 1327 147.01865614814048 L 1328 147.94874122752327 L 1329 148.88309348816085 L 1330 149.8216972361709 L 1331 150.76453670626174 L 1332 151.71159606199527 L 1333 152.6628593960548 L 1334 153.61831073051084 L 1335 154.57793401708986 L 1336 155.54171313744462 L 1337 156.50963190342355 L 1338 157.48167405734415 L 1339 158.45782327226436 L 1340 159.43806315225868 L 1341 160.42237723269167 L 1342 161.41074898049635 L 1343 162.4031617944503 L 1344 163.3995990054553 L 1345 164.40004387681756 L 1346 165.40447960452792 L 1347 166.41288931754536 L 1348 167.42525607807886 L 1349 168.44156288187352 L 1350 169.46179265849457 L 1351 170.48592827161568 L 1352 171.51395251930538 L 1353 172.54584813431657 L 1354 173.5815977843773 L 1355 174.62118407248025 L 1356 175.6645895371768 L 1357 176.71179665286846 L 1358 177.7627878301031 L 1359 178.8175454158685 L 1360 179.8760516938908 L 1361 180.93828888493036 L 1362 182.00423914708114 L 1363 183.07388457607112 L 1364 184.14720720556122 L 1365 185.22418900744918 L 1366 186.30481189217025 L 1367 187.3890577090032 L 1368 188.476908246373 L 1369 189.5683452321588 L 1370 190.66335033399923 L 1371 191.7619051596007 L 1372 192.86399125704753 L 1373 193.96959011510972 L 1374 195.07868316355618 L 1375 196.19125177346444 L 1376 197.30727725753573 L 1377 198.42674087040692 L 1378 199.54962380896626 L 1379 200.67590721266998 L 1380 201.80557216385714 L 1381 202.93859968806967 L 1382 204.07497075436876 L 1383 205.21466627565687 L 1384 206.3576671089959 L 1385 207.50395405593113 L 1386 208.65350786281172 L 1387 209.80630922111484 L 1388 210.96233876777086 L 1389 212.12157708548673 L 1390 213.28400470307417 L 1391 214.44960209577474 L 1392 215.61834968558966 L 1393 216.79022784160688 L 1394 217.96521688033258 L 1395 219.1432970660202 L 1396 220.32444861100257 L 1397 221.5086516760251 L 1398 222.6958863705772 L 1399 223.88613275322845 L 1400 225.07937083196143 L 1401 226.27558056450968 L 1402 227.47474185869217 L 1403 228.67683457275294 L 1404 229.88183851569744 L 1405 231.08973344763268 L 1406 232.30049908010787 L 1407 233.51411507645315 L 1408 234.73056105212373 L 1409 235.94981657503968 L 1410 237.17186116593163 L 1411 238.39667429868237 L 1412 239.62423540067394 L 1413 240.8545238531311 L 1414 242.0875189914686 L 1415 243.3232001056391 L 1416 244.56154644047908 L 1417 245.80253719605955 L 1418 247.0461515280334 L 1419 248.2923685479876 L 1420 249.54116732379183 L 1421 250.7925268799524 L 1422 252.0464261979625 L 1423 253.30284421665607 L 1424 254.5617598325626 L 1425 255.82315190025926 L 1426 257.08699923272866 L 1427 258.35328060171236 L 1428 259.6219747380696 L 1429 260.8930603321324 L 1430 262.1665160340656 L 1431 263.44232045422376 L 1432 264.720452163511 L 1433 266.00088969374184 L 1434 267.28361153800006 L 1435 268.56859615100177 L 1436 269.8558219494554 L 1437 271.14526731242637 L 1438 272.4369105816982 L 1439 273.73073006213724 L 1440 275.02670402205786 L 1441 276.3248106935855 L 1442 277.62502827302455 L 1443 278.9273349212223 L 1444 280.2317087639382 L 1445 281.5381278922087 L 1446 282.84657036271767 L 1447 284.15701419816315 L 1448 285.46943738762695 L 1449 286.7838178869457 L 1450 288.10013361907863 L 1451 289.418362474481 L 1452 290.73848231147315 L 1453 292.0604709566145 L 1454 293.38430620507387 L 1455 294.7099658210047 L 1456 296.0374275379165 L 1457 297.3666690590498 L 1458 298.6976680577513 L 1459 300.03040217784707 L 1460 301.3648490340204 L 1461 302.7009862121853 L 1462 304.03879126986527 L 1463 305.3782417365683 L 1464 306.7193151141663 L 1465 308.06198887727084 L 1466 309.4062404736127 L 1467 310.7520473244215 L 1468 312.09938682480254 L 1469 313.4482363441193 L 1470 314.798573226371 L 1471 316.15037479057537 L 1472 317.5036183311474 L 1473 318.8582811182831 L 1474 320.21434039833923 L 1475 321.57177339421617 L 1476 322.93055730574156 L 1477 324.29066931005116 L 1478 325.65208656197456 L 1479 327.0147861944166 L 1480 328.37874531874365 L 1481 329.74394102516584 L 1482 331.1103503831241 L 1483 332.4779504416735 L 1484 333.84671822986934 L 1485 335.21663075715395 L 1486 336.587665013741 L 1487 337.95979797100404 L 1488 339.3330065818611 L 1489 340.70726778116415 L 1490 342.0825584860841 L 1491 343.45885559650094 L 1492 344.8361359953897 L 1493 346.21437654920953 L 1494 347.5935541082931 L 1495 348.9736455072336 L 1496 350.35462756527596 L 1497 351.7364770867039 L 1498 353.1191708612322 L 1499 354.5026856643939 L 1500 355.88699825793174 L 1501 357.27208539018926 L 1502 358.65792379649923 L 1503 360.0444901995768 L 1504 361.43176130990804 L 1505 362.8197138261437 L 1506 364.20832443548795 L 1507 365.5975698140926 L 1508 366.98742662744655 L 1509 368.37787153076863 L 1510 369.7688811694009 L 1511 371.16043217919855 L 1512 372.55250118692464 L 1513 373.9450648106407 L 1514 375.3380996601015 L 1515 376.73158233714565 L 1516 378.125489436091 L 1517 379.5197975441258 L 1518 380.9144832417026 L 1519 382.3095231029327 L 1520 383.70489369597743 L 1521 385.1005715834443 L 1522 386.49653332277796 L 1523 387.89275546665675 L 1524 389.28921456338367 L 1525 390.6858871572831 L 1526 392.08274978909253 L 1527 393.4797789963573 L 1528 394.8769513138259 L 1529 396.2742432738419 L 1530 397.67163140674023 L 1531 399.0690922412396 L 1532 400.46660230483866 L 1533 401.8641381242078 L 1534 403.2616762255862 L 1535 404.6591931351737 L 1536 406.0566653795263 L 1537 407.4540694859508 L 1538 408.8513819828976 L 1539 410.2485794003567" stroke-linecap="round" stroke-linejoin="round" stroke-miterlimit="10" stroke-width="40"/></g></svg>